<svg xmlns="http://www.w3.org/2000/svg" version="1.1" xmlns:xlink="http://www.w3.org/1999/xlink" xmlns:svgjs="http://svgjs.dev/svgjs" width="1000" height="1000" viewBox="0 0 1000 1000"><rect width="1000" height="1000" fill="#dedede"></rect><g transform="matrix(0.7,0,0,0.7,150,281.25)"><svg viewBox="0 0 512 320" data-background-color="#dedede" preserveAspectRatio="xMidYMid meet" height="625" width="1000" xmlns="http://www.w3.org/2000/svg" xmlns:xlink="http://www.w3.org/1999/xlink"><g id="tight-bounds" transform="matrix(1,0,0,1,0,0)"><svg viewBox="0 0 512 320" height="320" width="512"><g><svg></svg></g><g><svg viewBox="0 0 512 320" height="320" width="512"><g><path xmlns="http://www.w3.org/2000/svg" d="M96 160c0-88.366 71.634-160 160-160 88.366 0 160 71.634 160 160 0 88.366-71.634 160-160 160-88.366 0-160-71.634-160-160zM256 309.174c82.387 0 149.174-66.788 149.174-149.174 0-82.387-66.788-149.174-149.174-149.174-82.387 0-149.174 66.788-149.174 149.174 0 82.387 66.788 149.174 149.174 149.174z" fill="#374151" fill-rule="nonzero" stroke="none" stroke-width="1" stroke-linecap="butt" stroke-linejoin="miter" stroke-miterlimit="10" stroke-dasharray="" stroke-dashoffset="0" font-family="none" font-weight="none" font-size="none" text-anchor="none" style="mix-blend-mode: normal" data-fill-palette-color="tertiary"></path></g><g transform="matrix(1,0,0,1,128,129.98934280639432)"><svg viewBox="0 0 256 60.02131438721137" height="60.02131438721137" width="256"><g><svg viewBox="0 0 256 60.02131438721137" height="60.02131438721137" width="256"><g><svg viewBox="0 0 256 60.02131438721137" height="60.02131438721137" width="256"><g id="textblocktransform"><svg viewBox="0 0 256 60.02131438721137" height="60.02131438721137" width="256" id="textblock"><g><svg viewBox="0 0 256 60.02131438721137" height="60.02131438721137" width="256"><g transform="matrix(1,0,0,1,0,0)"><svg width="256" viewBox="-1.100000023841858 -34.79999923706055 197.02999877929688 46.19999694824219" height="60.02131438721137" data-palette-color="#374151"><path d="M28.85 0L18.45 0 17.3-6.85 10.3-6.85 9.15 0-1.1 0 7.9-34.8 19.9-34.8 28.85 0ZM13.75-27.75L11.45-13.85 16.1-13.85 13.75-27.75ZM53.05-26.7L45.7-0.05Q42.7 10.95 30.15 11.4L30.15 11.4 29.1 4.85Q32.6 4.45 34.4 3.38 36.2 2.3 37.1 0L37.1 0 33.6 0 26.95-26.7 36.95-26.7 39.7-5.95 43.3-26.7 53.05-26.7ZM65.7-27.7Q71.59-27.7 74.97-24.05 78.34-20.4 78.34-13.3L78.34-13.3Q78.34-6.55 74.97-2.78 71.59 1 65.7 1L65.7 1Q59.75 1 56.37-2.65 53-6.3 53-13.4L53-13.4Q53-20.2 56.37-23.95 59.75-27.7 65.7-27.7L65.7-27.7ZM65.7-20.75Q64.2-20.75 63.57-19.1 62.95-17.45 62.95-13.4L62.95-13.4Q62.95-9.2 63.57-7.58 64.2-5.95 65.7-5.95L65.7-5.95Q67.2-5.95 67.82-7.6 68.45-9.25 68.45-13.3L68.45-13.3Q68.45-17.45 67.82-19.1 67.2-20.75 65.7-20.75L65.7-20.75ZM99.74-18.45Q106.94-16.75 106.94-10.25L106.94-10.25Q106.94-4.7 103.02-2.35 99.09 0 92.19 0L92.19 0 80.79 0 80.79-34.8 90.99-34.8Q105.64-34.8 105.64-25.8L105.64-25.8Q105.64-22.8 103.97-20.98 102.29-19.15 99.74-18.45L99.74-18.45ZM91.89-27.9L90.89-27.9 90.89-21.3 91.99-21.3Q93.94-21.3 94.72-22.15 95.49-23 95.49-24.8L95.49-24.8Q95.49-27.9 91.89-27.9L91.89-27.9ZM92.29-7.15Q94.44-7.15 95.54-8.03 96.64-8.9 96.64-11L96.64-11Q96.64-12.95 95.67-13.93 94.69-14.9 92.59-14.9L92.59-14.9 90.89-14.9 90.89-7.15 92.29-7.15ZM132.59-13.7Q132.59-12.4 132.39-10.6L132.39-10.6 117.79-10.6Q118.09-7.8 119.17-6.83 120.24-5.85 122.24-5.85L122.24-5.85Q123.59-5.85 124.89-6.4 126.19-6.95 127.79-8.1L127.79-8.1 131.69-2.9Q129.74-1.15 127.14-0.08 124.54 1 121.44 1L121.44 1Q114.84 1 111.49-2.85 108.14-6.7 108.14-13.25L108.14-13.25Q108.14-17.4 109.52-20.68 110.89-23.95 113.67-25.83 116.44-27.7 120.44-27.7L120.44-27.7Q126.04-27.7 129.31-24.1 132.59-20.5 132.59-13.7L132.59-13.7ZM123.09-16.05L123.09-16.45Q123.09-19.05 122.56-20.33 122.04-21.6 120.59-21.6L120.59-21.6Q119.24-21.6 118.59-20.43 117.94-19.25 117.74-16.05L117.74-16.05 123.09-16.05ZM150.09-27.55Q151.29-27.55 152.49-27.1L152.49-27.1 150.94-17.8Q149.74-18.15 148.79-18.15L148.79-18.15Q146.79-18.15 145.89-16.75 144.99-15.35 144.44-12.65L144.44-12.65 144.44 0 134.74 0 134.74-26.7 143.24-26.7 143.94-22.15Q144.84-24.7 146.41-26.13 147.99-27.55 150.09-27.55L150.09-27.55ZM168.84-27.55Q170.03-27.55 171.24-27.1L171.24-27.1 169.69-17.8Q168.49-18.15 167.53-18.15L167.53-18.15Q165.53-18.15 164.64-16.75 163.74-15.35 163.19-12.65L163.19-12.65 163.19 0 153.49 0 153.49-26.7 161.99-26.7 162.69-22.15Q163.59-24.7 165.16-26.13 166.74-27.55 168.84-27.55L168.84-27.55ZM195.93-26.7L188.58-0.05Q185.58 10.95 173.03 11.4L173.03 11.4 171.98 4.85Q175.48 4.45 177.28 3.38 179.08 2.3 179.98 0L179.98 0 176.48 0 169.83-26.7 179.83-26.7 182.58-5.95 186.18-26.7 195.93-26.7Z" opacity="1" transform="matrix(1,0,0,1,0,0)" fill="#374151" class="undefined-text-0" data-fill-palette-color="primary" id="text-0"></path></svg></g></svg></g></svg></g></svg></g><g></g></svg></g></svg></g></svg></g><defs></defs></svg><rect width="512" height="320" fill="none" stroke="none" visibility="hidden"></rect></g></svg></g></svg>